<?xml version="1.0" encoding="utf-8"?>
<!-- Generator: Adobe Illustrator 27.0.0, SVG Export Plug-In . SVG Version: 6.00 Build 0)  -->
<svg version="1.1" id="Layer_2_00000048500353670164474100000001884599410549380231_"
	 xmlns="http://www.w3.org/2000/svg" xmlns:xlink="http://www.w3.org/1999/xlink" x="0px" y="0px" viewBox="0 0 377.4 130.8"
	 style="enable-background:new 0 0 377.4 130.8;" xml:space="preserve">
<style type="text/css">
	.st0{fill:#000065;}
	.st1{fill:#535C6B;}
	.st2{fill:url(#SVGID_1_);}
</style>
<g id="Layer_1-2">
	<g>
		<path class="st0" d="M106,14.9c0.1-0.1,0-0.2-0.1-0.3c-1-0.5-5.7-2.5-10.7-0.8c-0.7-0.6-2.7-2-6.2,0.7c-0.1,0,0,0.1,0,0.1
			c0.4,0.1,1.6,0.5,2.2,1.4c-0.2,0.1-0.3,0.2-0.5,0.4c0,0-0.1,0.2-0.1,0.5l-1.2,0.3c-0.1,0-0.2,0.2-0.3,0.3c0,0.3,0,0.6,0,0.9
			c-0.2-0.2-0.7-0.5-1.3-0.2c-0.8,0.3-1.5,1.1-1.8,2.1c0,0,0.5-0.2,1.4,0.2c0.4,0.2,0.7,0.3,1,0.2c0.5-0.1,0.9-0.5,1-0.8
			c0.1,0.4,0.3,0.8,0.5,1.1c0.1,0.1,0.2,0.2,0.3,0.1l1.2-0.3c0.1,0.3,0.3,0.4,0.3,0.4c0.2,0,0.3,0.1,0.5,0.1
			c-0.1,1.1-1.1,2.3-1.5,2.6c-0.1,0.1,0,0.1,0,0.1c4.5,0.6,5.6-2.1,5.8-2.8C101.9,20.2,105.2,15.9,106,14.9L106,14.9z M88,19.5
			c0.4-0.8,1.1-1,1.3-1c0,0.3,0.1,0.5,0.1,0.8c0,0.1,0.1,0.3,0.1,0.4C89,19.9,88.5,19.8,88,19.5z M96.7,17.7
			c-0.2-0.9,0.4-1.9,1.3-2.1c0.9-0.3,1.8,0.3,2,1.2c0.2,0.9-0.4,1.9-1.3,2.1C97.7,19.2,96.8,18.6,96.7,17.7z"/>
		<path class="st0" d="M150.6,22c4.8,0,9.3,0.9,13.6,2.8c4.3,1.8,8,4.3,11.2,7.5c3.2,3.2,5.7,6.9,7.6,11.2c1.8,4.3,2.7,8.9,2.7,13.8
			s-0.9,9.3-2.7,13.6c-1.8,4.3-4.3,8-7.5,11.2c-3.2,3.2-6.9,5.7-11.2,7.6c-4.3,1.9-8.8,2.8-13.7,2.8c-3.6,0-7-0.7-10.3-2.1
			c-3.3-1.4-6.3-3.3-9.1-5.6v37.3H112V24.5h19.3v5c2.7-2.2,5.8-4.1,9-5.5C143.6,22.7,147.1,22,150.6,22L150.6,22z M148.6,75.1
			c2.5,0,4.8-0.5,7-1.4c2.2-0.9,4.1-2.2,5.7-3.8s2.8-3.5,3.8-5.6c0.9-2.2,1.4-4.5,1.4-7s-0.5-4.8-1.4-7c-0.9-2.2-2.2-4.1-3.8-5.6
			s-3.5-2.8-5.7-3.8s-4.5-1.4-7-1.4c-2.5,0-4.8,0.5-7,1.4s-4.1,2.2-5.7,3.8s-2.9,3.5-3.8,5.6c-0.9,2.2-1.4,4.5-1.4,7s0.5,4.8,1.4,7
			c0.9,2.2,2.2,4.1,3.8,5.6s3.5,2.8,5.7,3.8S146.1,75.1,148.6,75.1z"/>
		<path class="st0" d="M230.4,92.6c-5.3,0-10.3-0.9-14.9-2.8c-4.6-1.8-8.6-4.4-12.1-7.6s-6.1-7-8.1-11.2c-2-4.3-2.9-8.8-2.9-13.6
			s1-9.5,3-13.8c2-4.3,4.7-8.1,8.2-11.2s7.5-5.7,12.1-7.5s9.5-2.8,14.7-2.8s10.1,0.9,14.8,2.8c4.6,1.9,8.6,4.4,12.1,7.6
			c3.4,3.2,6.1,7,8.1,11.2c2,4.3,2.9,8.8,2.9,13.6s-1,9.5-3,13.8c-2,4.3-4.7,8-8.2,11.2c-3.4,3.2-7.4,5.7-12.1,7.5
			C240.4,91.6,235.5,92.6,230.4,92.6L230.4,92.6z M230.5,39.5c-2.8,0-5.4,0.5-7.6,1.5c-2.3,1-4.2,2.4-5.8,4.1
			c-1.6,1.7-2.8,3.6-3.7,5.8c-0.9,2.1-1.3,4.3-1.3,6.4c0,2.1,0.4,4.4,1.2,6.5c0.8,2.1,2,4,3.6,5.7c1.6,1.7,3.5,3.1,5.8,4.1
			c2.3,1,4.9,1.5,7.8,1.5s5.5-0.5,7.8-1.5c2.3-1,4.2-2.4,5.8-4.1s2.8-3.6,3.7-5.7s1.3-4.2,1.3-6.5c0-2.2-0.5-4.3-1.3-6.4
			s-2.1-4.1-3.7-5.8c-1.6-1.7-3.5-3.1-5.8-4.1S233.3,39.5,230.5,39.5z"/>
		<path class="st0" d="M294.2,0v90h-19.3V0H294.2z"/>
		<path class="st0" d="M338.9,92.6c-5.3,0-10.3-0.9-14.9-2.8c-4.6-1.8-8.6-4.4-12.1-7.6s-6.1-7-8.1-11.2s-2.9-8.8-2.9-13.6
			s1-9.5,3-13.8c2-4.3,4.7-8.1,8.2-11.2s7.5-5.7,12.1-7.5c4.6-1.8,9.5-2.8,14.7-2.8s10.1,0.9,14.8,2.8c4.6,1.9,8.6,4.4,12.1,7.6
			c3.4,3.2,6.1,7,8.1,11.2c2,4.3,2.9,8.8,2.9,13.6s-1,9.5-3,13.8c-2,4.3-4.7,8-8.2,11.2c-3.4,3.2-7.4,5.7-12.1,7.5
			C348.8,91.6,344,92.6,338.9,92.6L338.9,92.6z M338.9,39.5c-2.8,0-5.4,0.5-7.6,1.5c-2.3,1-4.2,2.4-5.8,4.1
			c-1.6,1.7-2.8,3.6-3.7,5.8c-0.9,2.1-1.3,4.3-1.3,6.4c0,2.1,0.4,4.4,1.2,6.5c0.8,2.1,2,4,3.6,5.7c1.6,1.7,3.5,3.1,5.8,4.1
			c2.3,1,4.9,1.5,7.8,1.5s5.5-0.5,7.8-1.5c2.3-1,4.2-2.4,5.8-4.1c1.6-1.7,2.8-3.6,3.7-5.7s1.3-4.2,1.3-6.5c0-2.2-0.5-4.3-1.3-6.4
			s-2.1-4.1-3.7-5.8c-1.6-1.7-3.5-3.1-5.8-4.1S341.7,39.5,338.9,39.5z"/>
		<g>
			<path class="st1" d="M303.9,113c0.9-1.7,2.2-3.1,3.9-4.1c1.6-1,3.4-1.5,5.4-1.5c1.5,0,2.9,0.3,4.4,1c1.4,0.6,2.6,1.5,3.4,2.6V100
				h4.7v30.4H321V127c-0.8,1.1-1.8,2-3.2,2.7c-1.4,0.7-2.9,1.1-4.7,1.1c-2,0-3.8-0.5-5.4-1.5c-1.6-1-2.9-2.4-3.9-4.2
				c-0.9-1.8-1.4-3.8-1.4-6.1C302.5,116.7,303,114.7,303.9,113L303.9,113z M320,115c-0.6-1.1-1.5-2-2.5-2.6c-1-0.6-2.2-0.9-3.4-0.9
				s-2.3,0.3-3.4,0.9c-1,0.6-1.9,1.5-2.5,2.6c-0.6,1.1-1,2.5-1,4s0.3,2.9,1,4.1c0.6,1.2,1.5,2.1,2.5,2.7c1.1,0.6,2.2,0.9,3.3,0.9
				s2.3-0.3,3.4-0.9c1-0.6,1.9-1.5,2.5-2.7s1-2.5,1-4.1S320.7,116.1,320,115L320,115z"/>
			<path class="st1" d="M352.5,120.8h-17.3c0.1,1.8,0.8,3.3,2,4.3c1.2,1.1,2.7,1.6,4.4,1.6c2.5,0,4.3-1.1,5.4-3.2h5.1
				c-0.7,2.1-1.9,3.8-3.7,5.1c-1.8,1.3-4,2-6.7,2c-2.2,0-4.1-0.5-5.8-1.5c-1.7-1-3.1-2.3-4-4.1c-1-1.8-1.5-3.8-1.5-6.2
				c0-2.3,0.5-4.4,1.4-6.2c0.9-1.8,2.3-3.1,4-4.1c1.7-1,3.7-1.4,5.9-1.4s4,0.5,5.7,1.4s3,2.2,3.9,3.9c0.9,1.7,1.4,3.6,1.4,5.8
				C352.6,119.4,352.6,120.2,352.5,120.8L352.5,120.8z M347.8,117.1c0-1.7-0.6-3.1-1.9-4.1s-2.7-1.6-4.5-1.6c-1.6,0-3,0.5-4.1,1.5
				c-1.1,1-1.8,2.4-2.1,4.2H347.8L347.8,117.1z"/>
			<path class="st1" d="M366,126.2l6.4-18.5h5l-8.6,22.7h-5.6l-8.6-22.7h5L366,126.2L366,126.2z"/>
		</g>
		
			<linearGradient id="SVGID_1_" gradientUnits="userSpaceOnUse" x1="-94.4821" y1="138.5206" x2="152.4402" y2="138.5206" gradientTransform="matrix(1 0 0 -1 0 189.7376)">
			<stop  offset="0" style="stop-color:#8500CA"/>
			<stop  offset="1" style="stop-color:#0067FF"/>
		</linearGradient>
		<path class="st2" d="M95.6,56.3c-5.5,0.2-12.5,0.3-20.1,0.3c-6.8-0.1-14.2-0.3-21.3-0.8c-6.8-0.5-13.4-1.3-19.3-2.5
			C23.4,51,15,47.2,14.4,40.9c0,0-1.7-7.1,28-15.8c0,0-45.9,4.9-42.1,25.6c1.3,7.1,13.4,12.7,29.8,17c5.9,1.5,12.3,2.8,18.9,4
			C59.7,73.6,71,75,81.9,76c7.4,0.7,14.4,1.1,20.9,1.3L95.6,56.3L95.6,56.3z"/>
		<path class="st0" d="M102.7,77.3c-6.4-0.2-13.5-0.7-20.9-1.3l4.6,13.9H107C107,89.9,102.7,77.3,102.7,77.3z"/>
		<path class="st0" d="M64.7,23.7l10.8,32.9c7.6,0.1,14.6-0.1,20.1-0.3L76.5,0.5H53.1L35,53.4c5.8,1.2,12.4,1.9,19.3,2.5
			C54.2,55.8,64.7,23.7,64.7,23.7z"/>
		<path class="st0" d="M22.5,89.9h20.7L49,71.8c-6.7-1.2-13.1-2.5-18.9-4L22.5,89.9L22.5,89.9z"/>
	</g>
</g>
</svg>
