<?xml version="1.0" encoding="utf-8"?>
<!-- Generator: Adobe Illustrator 27.0.0, SVG Export Plug-In . SVG Version: 6.00 Build 0)  -->
<svg version="1.1" id="Layer_2_00000048500353670164474100000001884599410549380231_"
	 xmlns="http://www.w3.org/2000/svg" xmlns:xlink="http://www.w3.org/1999/xlink" x="0px" y="0px" viewBox="0 0 377.4 130.8"
	 style="enable-background:new 0 0 377.4 130.8;" xml:space="preserve">
<style type="text/css">
	.st0{fill:#FFFFFF;}
</style>
<g>
	<path class="st0" d="M87.4,20.5c0.4,0.2,0.7,0.3,1,0.2c0.5-0.1,0.9-0.5,1-0.8c0.1,0.4,0.3,0.8,0.5,1.1c0.1,0.1,0.2,0.2,0.3,0.1
		l1.2-0.3c0.1,0.3,0.3,0.4,0.3,0.4c0.2,0,0.3,0.1,0.5,0.1c-0.1,1.1-1.1,2.3-1.5,2.6c-0.1,0.1,0,0.1,0,0.1c4.5,0.6,5.6-2.1,5.8-2.8
		c5.4-1,8.7-5.3,9.5-6.3c0.1-0.1,0-0.2-0.1-0.3c-1-0.5-5.7-2.5-10.7-0.8c-0.7-0.6-2.7-2-6.2,0.7c-0.1,0,0,0.1,0,0.1
		c0.4,0.1,1.6,0.5,2.2,1.4c-0.2,0.1-0.3,0.2-0.5,0.4c0,0-0.1,0.2-0.1,0.5l-1.2,0.3c-0.1,0-0.2,0.2-0.3,0.3c0,0.3,0,0.6,0,0.9
		c-0.2-0.2-0.7-0.5-1.3-0.2c-0.8,0.3-1.5,1.1-1.8,2.1C86,20.3,86.5,20.1,87.4,20.5z M98,15.6c0.9-0.3,1.8,0.3,2,1.2
		s-0.4,1.9-1.3,2.1c-1,0.3-1.9-0.3-2-1.2C96.5,16.8,97.1,15.8,98,15.6z M89.3,18.5c0,0.3,0.1,0.5,0.1,0.8c0,0.1,0.1,0.3,0.1,0.4
		c-0.5,0.2-1,0.1-1.5-0.2C88.4,18.7,89.1,18.5,89.3,18.5z"/>
	<path class="st0" d="M175.4,32.3c-3.2-3.2-6.9-5.7-11.2-7.5c-4.3-1.9-8.8-2.8-13.6-2.8c-3.5,0-7,0.7-10.3,2c-3.2,1.4-6.3,3.3-9,5.5
		v-5H112v97.6h19.2V84.8c2.8,2.3,5.8,4.2,9.1,5.6c3.3,1.4,6.7,2.1,10.3,2.1c4.9,0,9.4-0.9,13.7-2.8c4.3-1.9,8-4.4,11.2-7.6
		c3.2-3.2,5.7-6.9,7.5-11.2c1.8-4.3,2.7-8.7,2.7-13.6s-0.9-9.5-2.7-13.8C181.1,39.2,178.6,35.5,175.4,32.3z M165.1,64.3
		c-1,2.1-2.2,4-3.8,5.6c-1.6,1.6-3.5,2.9-5.7,3.8c-2.2,0.9-4.5,1.4-7,1.4s-4.8-0.4-7-1.4c-2.2-1-4.1-2.3-5.7-3.8
		c-1.6-1.5-2.9-3.4-3.8-5.6c-0.9-2.2-1.4-4.5-1.4-7s0.5-4.8,1.4-7c0.9-2.1,2.2-4,3.8-5.6c1.6-1.6,3.5-2.9,5.7-3.8
		c2.2-0.9,4.5-1.4,7-1.4s4.8,0.4,7,1.4c2.2,1,4.1,2.3,5.7,3.8c1.6,1.5,2.9,3.4,3.8,5.6c0.9,2.2,1.4,4.5,1.4,7S166,62.1,165.1,64.3z"
		/>
	<path class="st0" d="M257.3,32.5c-3.5-3.2-7.5-5.7-12.1-7.6c-4.7-1.9-9.6-2.8-14.8-2.8c-5.2,0-10.1,1-14.7,2.8
		c-4.6,1.8-8.6,4.4-12.1,7.5c-3.5,3.1-6.2,6.9-8.2,11.2s-3,9-3,13.8c0,4.8,0.9,9.3,2.9,13.6c2,4.2,4.6,8,8.1,11.2
		c3.5,3.2,7.5,5.8,12.1,7.6c4.6,1.9,9.6,2.8,14.9,2.8c5.1,0,10-1,14.6-2.8c4.7-1.8,8.7-4.3,12.1-7.5c3.5-3.2,6.2-6.9,8.2-11.2
		c2-4.3,3-9,3-13.8s-0.9-9.3-2.9-13.6C263.4,39.5,260.7,35.7,257.3,32.5z M247.8,63.8c-0.9,2.1-2.1,4-3.7,5.7
		c-1.6,1.7-3.5,3.1-5.8,4.1c-2.3,1-4.9,1.5-7.8,1.5s-5.5-0.5-7.8-1.5s-4.2-2.4-5.8-4.1c-1.6-1.7-2.8-3.6-3.6-5.7s-1.2-4.4-1.2-6.5
		s0.4-4.3,1.3-6.4c0.9-2.2,2.1-4.1,3.7-5.8c1.6-1.7,3.5-3.1,5.8-4.1c2.2-1,4.8-1.5,7.6-1.5s5.5,0.5,7.8,1.5c2.3,1,4.2,2.4,5.8,4.1
		c1.6,1.7,2.9,3.7,3.7,5.8c0.8,2.1,1.3,4.2,1.3,6.4C249.1,59.6,248.7,61.7,247.8,63.8z"/>
	<rect x="274.9" y="0" class="st0" width="19.3" height="90"/>
	<path class="st0" d="M373.8,71.1c2-4.3,3-9,3-13.8s-0.9-9.3-2.9-13.6c-2-4.2-4.7-8-8.1-11.2c-3.5-3.2-7.5-5.7-12.1-7.6
		c-4.7-1.9-9.6-2.8-14.8-2.8s-10.1,1-14.7,2.8c-4.6,1.8-8.6,4.4-12.1,7.5c-3.5,3.1-6.2,6.9-8.2,11.2s-3,9-3,13.8
		c0,4.8,0.9,9.4,2.9,13.6s4.6,8,8.1,11.2c3.5,3.2,7.5,5.8,12.1,7.6c4.6,1.9,9.6,2.8,14.9,2.8c5.1,0,9.9-1,14.6-2.8s8.7-4.3,12.1-7.5
		C369.1,79.1,371.8,75.4,373.8,71.1z M356.2,63.8c-0.9,2.1-2.1,4-3.7,5.7s-3.5,3.1-5.8,4.1s-4.9,1.5-7.8,1.5c-2.9,0-5.5-0.5-7.8-1.5
		s-4.2-2.4-5.8-4.1c-1.6-1.7-2.8-3.6-3.6-5.7s-1.2-4.4-1.2-6.5s0.4-4.3,1.3-6.4c0.9-2.2,2.1-4.1,3.7-5.8s3.5-3.1,5.8-4.1
		c2.2-1,4.8-1.5,7.6-1.5s5.5,0.5,7.8,1.5s4.2,2.4,5.8,4.1c1.6,1.7,2.9,3.7,3.7,5.8c0.8,2.1,1.3,4.2,1.3,6.4
		C357.5,59.6,357.1,61.7,356.2,63.8z"/>
	<path class="st0" d="M321,111c-0.8-1.1-2-2-3.4-2.6c-1.5-0.7-2.9-1-4.4-1c-2,0-3.8,0.5-5.4,1.5c-1.7,1-3,2.4-3.9,4.1
		c-0.9,1.7-1.4,3.7-1.5,6c0,2.3,0.5,4.3,1.4,6.1c1,1.8,2.3,3.2,3.9,4.2c1.6,1,3.4,1.5,5.4,1.5c1.8,0,3.3-0.4,4.7-1.1
		c1.4-0.7,2.4-1.6,3.2-2.7v3.4h4.7V100H321V111z M319.9,123.1c-0.6,1.2-1.5,2.1-2.5,2.7c-1.1,0.6-2.3,0.9-3.4,0.9s-2.2-0.3-3.3-0.9
		c-1-0.6-1.9-1.5-2.5-2.7c-0.7-1.2-1-2.6-1-4.1s0.4-2.9,1-4c0.6-1.1,1.5-2,2.5-2.6c1.1-0.6,2.2-0.9,3.4-0.9c1.2,0,2.4,0.3,3.4,0.9
		c1,0.6,1.9,1.5,2.5,2.6c0.7,1.1,0.9,2.4,0.9,4C320.9,120.6,320.5,121.9,319.9,123.1z"/>
	<path class="st0" d="M347.4,108.5c-1.7-0.9-3.5-1.4-5.7-1.4c-2.2,0-4.2,0.4-5.9,1.4s-3.1,2.3-4,4.1c-0.9,1.8-1.4,3.9-1.4,6.2
		c0,2.4,0.5,4.4,1.5,6.2c0.9,1.8,2.3,3.1,4,4.1c1.7,1,3.6,1.5,5.8,1.5c2.7,0,4.9-0.7,6.7-2c1.8-1.3,3-3,3.7-5.1H347
		c-1.1,2.1-2.9,3.2-5.4,3.2c-1.7,0-3.2-0.5-4.4-1.6c-1.2-1-1.9-2.5-2-4.3h17.3c0.1-0.6,0.1-1.4,0.2-2.6c0-2.2-0.5-4.1-1.4-5.8
		C350.4,110.7,349.1,109.4,347.4,108.5z M335.2,117.1c0.3-1.8,1-3.2,2.1-4.2c1.1-1,2.5-1.5,4.1-1.5c1.8,0,3.2,0.6,4.5,1.6
		s1.9,2.4,1.9,4.1H335.2z"/>
	<polygon class="st0" points="372.4,107.7 366,126.2 359.6,107.7 354.6,107.7 363.2,130.4 368.8,130.4 377.4,107.7 	"/>
	<path class="st0" d="M99.3,77.2c1.2,0,2.4,0.1,3.5,0.1l-7.2-21L76.5,0.5H53.1L35,53.3c0,0-0.1,0-0.1,0C23.4,51,15,47.2,14.4,40.9
		c0,0-1.7-7.1,28-15.8c0,0-45.9,4.9-42.1,25.6c1.3,7.1,13.4,12.7,29.8,17c5.9,1.5,12.3,2.8,18.9,4C59.7,73.6,71,75,81.9,76
		c0.4,0,0.8,0.1,1.3,0.1c-0.5,0-0.9-0.1-1.4-0.1l4.6,13.9H107l-4.3-12.6C101.6,77.3,100.4,77.2,99.3,77.2z M54.3,55.8
		c0.5-1.8,10.4-32.1,10.4-32.1l10.8,32.9C68.7,56.5,61.4,56.3,54.3,55.8z"/>
	<path class="st0" d="M22.5,89.9h20.7L49,71.8c-6.7-1.2-13.1-2.5-18.9-4L22.5,89.9z"/>
</g>
</svg>
